solid accessible_tactile_chess_board
 facet normal 0.000000 0.000000 -1.000000
  outer loop
   vertex -106.0000 -106.0000 0.0000
   vertex 106.0000 106.0000 0.0000
   vertex 106.0000 -106.0000 0.0000
  endloop
 endfacet
 facet normal 0.000000 0.000000 -1.000000
  outer loop
   vertex -106.0000 -106.0000 0.0000
   vertex -106.0000 106.0000 0.0000
   vertex 106.0000 106.0000 0.0000
  endloop
 endfacet
 facet normal 0.000000 0.000000 1.000000
  outer loop
   vertex -106.0000 -106.0000 4.0000
   vertex 106.0000 -106.0000 4.0000
   vertex 106.0000 106.0000 4.0000
  endloop
 endfacet
 facet normal 0.000000 0.000000 1.000000
  outer loop
   vertex -106.0000 -106.0000 4.0000
   vertex 106.0000 106.0000 4.0000
   vertex -106.0000 106.0000 4.0000
  endloop
 endfacet
 facet normal 0.000000 -1.000000 0.000000
  outer loop
   vertex -106.0000 -106.0000 0.0000
   vertex 106.0000 -106.0000 0.0000
   vertex 106.0000 -106.0000 4.0000
  endloop
 endfacet
 facet normal 0.000000 -1.000000 0.000000
  outer loop
   vertex -106.0000 -106.0000 0.0000
   vertex 106.0000 -106.0000 4.0000
   vertex -106.0000 -106.0000 4.0000
  endloop
 endfacet
 facet normal 1.000000 0.000000 0.000000
  outer loop
   vertex 106.0000 -106.0000 0.0000
   vertex 106.0000 106.0000 0.0000
   vertex 106.0000 106.0000 4.0000
  endloop
 endfacet
 facet normal 1.000000 0.000000 0.000000
  outer loop
   vertex 106.0000 -106.0000 0.0000
   vertex 106.0000 106.0000 4.0000
   vertex 106.0000 -106.0000 4.0000
  endloop
 endfacet
 facet normal 0.000000 1.000000 0.000000
  outer loop
   vertex 106.0000 106.0000 0.0000
   vertex -106.0000 106.0000 0.0000
   vertex -106.0000 106.0000 4.0000
  endloop
 endfacet
 facet normal 0.000000 1.000000 0.000000
  outer loop
   vertex 106.0000 106.0000 0.0000
   vertex -106.0000 106.0000 4.0000
   vertex 106.0000 106.0000 4.0000
  endloop
 endfacet
 facet normal -1.000000 0.000000 0.000000
  outer loop
   vertex -106.0000 106.0000 0.0000
   vertex -106.0000 -106.0000 0.0000
   vertex -106.0000 -106.0000 4.0000
  endloop
 endfacet
 facet normal -1.000000 0.000000 0.000000
  outer loop
   vertex -106.0000 106.0000 0.0000
   vertex -106.0000 -106.0000 4.0000
   vertex -106.0000 106.0000 4.0000
  endloop
 endfacet
 facet normal 0.000000 0.000000 -1.000000
  outer loop
   vertex -96.8000 -96.0000 4.0000
   vertex -95.2000 96.0000 4.0000
   vertex -95.2000 -96.0000 4.0000
  endloop
 endfacet
 facet normal 0.000000 0.000000 -1.000000
  outer loop
   vertex -96.8000 -96.0000 4.0000
   vertex -96.8000 96.0000 4.0000
   vertex -95.2000 96.0000 4.0000
  endloop
 endfacet
 facet normal 0.000000 0.000000 1.000000
  outer loop
   vertex -96.8000 -96.0000 5.4000
   vertex -95.2000 -96.0000 5.4000
   vertex -95.2000 96.0000 5.4000
  endloop
 endfacet
 facet normal 0.000000 0.000000 1.000000
  outer loop
   vertex -96.8000 -96.0000 5.4000
   vertex -95.2000 96.0000 5.4000
   vertex -96.8000 96.0000 5.4000
  endloop
 endfacet
 facet normal 0.000000 -1.000000 0.000000
  outer loop
   vertex -96.8000 -96.0000 4.0000
   vertex -95.2000 -96.0000 4.0000
   vertex -95.2000 -96.0000 5.4000
  endloop
 endfacet
 facet normal 0.000000 -1.000000 0.000000
  outer loop
   vertex -96.8000 -96.0000 4.0000
   vertex -95.2000 -96.0000 5.4000
   vertex -96.8000 -96.0000 5.4000
  endloop
 endfacet
 facet normal 1.000000 0.000000 0.000000
  outer loop
   vertex -95.2000 -96.0000 4.0000
   vertex -95.2000 96.0000 4.0000
   vertex -95.2000 96.0000 5.4000
  endloop
 endfacet
 facet normal 1.000000 0.000000 0.000000
  outer loop
   vertex -95.2000 -96.0000 4.0000
   vertex -95.2000 96.0000 5.4000
   vertex -95.2000 -96.0000 5.4000
  endloop
 endfacet
 facet normal 0.000000 1.000000 0.000000
  outer loop
   vertex -95.2000 96.0000 4.0000
   vertex -96.8000 96.0000 4.0000
   vertex -96.8000 96.0000 5.4000
  endloop
 endfacet
 facet normal 0.000000 1.000000 0.000000
  outer loop
   vertex -95.2000 96.0000 4.0000
   vertex -96.8000 96.0000 5.4000
   vertex -95.2000 96.0000 5.4000
  endloop
 endfacet
 facet normal -1.000000 0.000000 0.000000
  outer loop
   vertex -96.8000 96.0000 4.0000
   vertex -96.8000 -96.0000 4.0000
   vertex -96.8000 -96.0000 5.4000
  endloop
 endfacet
 facet normal -1.000000 0.000000 0.000000
  outer loop
   vertex -96.8000 96.0000 4.0000
   vertex -96.8000 -96.0000 5.4000
   vertex -96.8000 96.0000 5.4000
  endloop
 endfacet
 facet normal 0.000000 0.000000 -1.000000
  outer loop
   vertex -96.0000 -96.8000 4.0000
   vertex 96.0000 -95.2000 4.0000
   vertex 96.0000 -96.8000 4.0000
  endloop
 endfacet
 facet normal 0.000000 0.000000 -1.000000
  outer loop
   vertex -96.0000 -96.8000 4.0000
   vertex -96.0000 -95.2000 4.0000
   vertex 96.0000 -95.2000 4.0000
  endloop
 endfacet
 facet normal 0.000000 0.000000 1.000000
  outer loop
   vertex -96.0000 -96.8000 5.4000
   vertex 96.0000 -96.8000 5.4000
   vertex 96.0000 -95.2000 5.4000
  endloop
 endfacet
 facet normal 0.000000 0.000000 1.000000
  outer loop
   vertex -96.0000 -96.8000 5.4000
   vertex 96.0000 -95.2000 5.4000
   vertex -96.0000 -95.2000 5.4000
  endloop
 endfacet
 facet normal 0.000000 -1.000000 0.000000
  outer loop
   vertex -96.0000 -96.8000 4.0000
   vertex 96.0000 -96.8000 4.0000
   vertex 96.0000 -96.8000 5.4000
  endloop
 endfacet
 facet normal 0.000000 -1.000000 0.000000
  outer loop
   vertex -96.0000 -96.8000 4.0000
   vertex 96.0000 -96.8000 5.4000
   vertex -96.0000 -96.8000 5.4000
  endloop
 endfacet
 facet normal 1.000000 0.000000 0.000000
  outer loop
   vertex 96.0000 -96.8000 4.0000
   vertex 96.0000 -95.2000 4.0000
   vertex 96.0000 -95.2000 5.4000
  endloop
 endfacet
 facet normal 1.000000 0.000000 0.000000
  outer loop
   vertex 96.0000 -96.8000 4.0000
   vertex 96.0000 -95.2000 5.4000
   vertex 96.0000 -96.8000 5.4000
  endloop
 endfacet
 facet normal 0.000000 1.000000 0.000000
  outer loop
   vertex 96.0000 -95.2000 4.0000
   vertex -96.0000 -95.2000 4.0000
   vertex -96.0000 -95.2000 5.4000
  endloop
 endfacet
 facet normal 0.000000 1.000000 0.000000
  outer loop
   vertex 96.0000 -95.2000 4.0000
   vertex -96.0000 -95.2000 5.4000
   vertex 96.0000 -95.2000 5.4000
  endloop
 endfacet
 facet normal -1.000000 0.000000 0.000000
  outer loop
   vertex -96.0000 -95.2000 4.0000
   vertex -96.0000 -96.8000 4.0000
   vertex -96.0000 -96.8000 5.4000
  endloop
 endfacet
 facet normal -1.000000 0.000000 0.000000
  outer loop
   vertex -96.0000 -95.2000 4.0000
   vertex -96.0000 -96.8000 5.4000
   vertex -96.0000 -95.2000 5.4000
  endloop
 endfacet
 facet normal 0.000000 0.000000 -1.000000
  outer loop
   vertex -72.8000 -96.0000 4.0000
   vertex -71.2000 96.0000 4.0000
   vertex -71.2000 -96.0000 4.0000
  endloop
 endfacet
 facet normal 0.000000 0.000000 -1.000000
  outer loop
   vertex -72.8000 -96.0000 4.0000
   vertex -72.8000 96.0000 4.0000
   vertex -71.2000 96.0000 4.0000
  endloop
 endfacet
 facet normal 0.000000 0.000000 1.000000
  outer loop
   vertex -72.8000 -96.0000 5.4000
   vertex -71.2000 -96.0000 5.4000
   vertex -71.2000 96.0000 5.4000
  endloop
 endfacet
 facet normal 0.000000 0.000000 1.000000
  outer loop
   vertex -72.8000 -96.0000 5.4000
   vertex -71.2000 96.0000 5.4000
   vertex -72.8000 96.0000 5.4000
  endloop
 endfacet
 facet normal 0.000000 -1.000000 0.000000
  outer loop
   vertex -72.8000 -96.0000 4.0000
   vertex -71.2000 -96.0000 4.0000
   vertex -71.2000 -96.0000 5.4000
  endloop
 endfacet
 facet normal 0.000000 -1.000000 0.000000
  outer loop
   vertex -72.8000 -96.0000 4.0000
   vertex -71.2000 -96.0000 5.4000
   vertex -72.8000 -96.0000 5.4000
  endloop
 endfacet
 facet normal 1.000000 0.000000 0.000000
  outer loop
   vertex -71.2000 -96.0000 4.0000
   vertex -71.2000 96.0000 4.0000
   vertex -71.2000 96.0000 5.4000
  endloop
 endfacet
 facet normal 1.000000 0.000000 0.000000
  outer loop
   vertex -71.2000 -96.0000 4.0000
   vertex -71.2000 96.0000 5.4000
   vertex -71.2000 -96.0000 5.4000
  endloop
 endfacet
 facet normal 0.000000 1.000000 0.000000
  outer loop
   vertex -71.2000 96.0000 4.0000
   vertex -72.8000 96.0000 4.0000
   vertex -72.8000 96.0000 5.4000
  endloop
 endfacet
 facet normal 0.000000 1.000000 0.000000
  outer loop
   vertex -71.2000 96.0000 4.0000
   vertex -72.8000 96.0000 5.4000
   vertex -71.2000 96.0000 5.4000
  endloop
 endfacet
 facet normal -1.000000 0.000000 0.000000
  outer loop
   vertex -72.8000 96.0000 4.0000
   vertex -72.8000 -96.0000 4.0000
   vertex -72.8000 -96.0000 5.4000
  endloop
 endfacet
 facet normal -1.000000 0.000000 0.000000
  outer loop
   vertex -72.8000 96.0000 4.0000
   vertex -72.8000 -96.0000 5.4000
   vertex -72.8000 96.0000 5.4000
  endloop
 endfacet
 facet normal 0.000000 0.000000 -1.000000
  outer loop
   vertex -96.0000 -72.8000 4.0000
   vertex 96.0000 -71.2000 4.0000
   vertex 96.0000 -72.8000 4.0000
  endloop
 endfacet
 facet normal 0.000000 0.000000 -1.000000
  outer loop
   vertex -96.0000 -72.8000 4.0000
   vertex -96.0000 -71.2000 4.0000
   vertex 96.0000 -71.2000 4.0000
  endloop
 endfacet
 facet normal 0.000000 0.000000 1.000000
  outer loop
   vertex -96.0000 -72.8000 5.4000
   vertex 96.0000 -72.8000 5.4000
   vertex 96.0000 -71.2000 5.4000
  endloop
 endfacet
 facet normal 0.000000 0.000000 1.000000
  outer loop
   vertex -96.0000 -72.8000 5.4000
   vertex 96.0000 -71.2000 5.4000
   vertex -96.0000 -71.2000 5.4000
  endloop
 endfacet
 facet normal 0.000000 -1.000000 0.000000
  outer loop
   vertex -96.0000 -72.8000 4.0000
   vertex 96.0000 -72.8000 4.0000
   vertex 96.0000 -72.8000 5.4000
  endloop
 endfacet
 facet normal 0.000000 -1.000000 0.000000
  outer loop
   vertex -96.0000 -72.8000 4.0000
   vertex 96.0000 -72.8000 5.4000
   vertex -96.0000 -72.8000 5.4000
  endloop
 endfacet
 facet normal 1.000000 0.000000 0.000000
  outer loop
   vertex 96.0000 -72.8000 4.0000
   vertex 96.0000 -71.2000 4.0000
   vertex 96.0000 -71.2000 5.4000
  endloop
 endfacet
 facet normal 1.000000 0.000000 0.000000
  outer loop
   vertex 96.0000 -72.8000 4.0000
   vertex 96.0000 -71.2000 5.4000
   vertex 96.0000 -72.8000 5.4000
  endloop
 endfacet
 facet normal 0.000000 1.000000 0.000000
  outer loop
   vertex 96.0000 -71.2000 4.0000
   vertex -96.0000 -71.2000 4.0000
   vertex -96.0000 -71.2000 5.4000
  endloop
 endfacet
 facet normal 0.000000 1.000000 0.000000
  outer loop
   vertex 96.0000 -71.2000 4.0000
   vertex -96.0000 -71.2000 5.4000
   vertex 96.0000 -71.2000 5.4000
  endloop
 endfacet
 facet normal -1.000000 0.000000 0.000000
  outer loop
   vertex -96.0000 -71.2000 4.0000
   vertex -96.0000 -72.8000 4.0000
   vertex -96.0000 -72.8000 5.4000
  endloop
 endfacet
 facet normal -1.000000 0.000000 0.000000
  outer loop
   vertex -96.0000 -71.2000 4.0000
   vertex -96.0000 -72.8000 5.4000
   vertex -96.0000 -71.2000 5.4000
  endloop
 endfacet
 facet normal 0.000000 0.000000 -1.000000
  outer loop
   vertex -48.8000 -96.0000 4.0000
   vertex -47.2000 96.0000 4.0000
   vertex -47.2000 -96.0000 4.0000
  endloop
 endfacet
 facet normal 0.000000 0.000000 -1.000000
  outer loop
   vertex -48.8000 -96.0000 4.0000
   vertex -48.8000 96.0000 4.0000
   vertex -47.2000 96.0000 4.0000
  endloop
 endfacet
 facet normal 0.000000 0.000000 1.000000
  outer loop
   vertex -48.8000 -96.0000 5.4000
   vertex -47.2000 -96.0000 5.4000
   vertex -47.2000 96.0000 5.4000
  endloop
 endfacet
 facet normal 0.000000 0.000000 1.000000
  outer loop
   vertex -48.8000 -96.0000 5.4000
   vertex -47.2000 96.0000 5.4000
   vertex -48.8000 96.0000 5.4000
  endloop
 endfacet
 facet normal 0.000000 -1.000000 0.000000
  outer loop
   vertex -48.8000 -96.0000 4.0000
   vertex -47.2000 -96.0000 4.0000
   vertex -47.2000 -96.0000 5.4000
  endloop
 endfacet
 facet normal 0.000000 -1.000000 0.000000
  outer loop
   vertex -48.8000 -96.0000 4.0000
   vertex -47.2000 -96.0000 5.4000
   vertex -48.8000 -96.0000 5.4000
  endloop
 endfacet
 facet normal 1.000000 0.000000 0.000000
  outer loop
   vertex -47.2000 -96.0000 4.0000
   vertex -47.2000 96.0000 4.0000
   vertex -47.2000 96.0000 5.4000
  endloop
 endfacet
 facet normal 1.000000 0.000000 0.000000
  outer loop
   vertex -47.2000 -96.0000 4.0000
   vertex -47.2000 96.0000 5.4000
   vertex -47.2000 -96.0000 5.4000
  endloop
 endfacet
 facet normal 0.000000 1.000000 0.000000
  outer loop
   vertex -47.2000 96.0000 4.0000
   vertex -48.8000 96.0000 4.0000
   vertex -48.8000 96.0000 5.4000
  endloop
 endfacet
 facet normal 0.000000 1.000000 0.000000
  outer loop
   vertex -47.2000 96.0000 4.0000
   vertex -48.8000 96.0000 5.4000
   vertex -47.2000 96.0000 5.4000
  endloop
 endfacet
 facet normal -1.000000 0.000000 0.000000
  outer loop
   vertex -48.8000 96.0000 4.0000
   vertex -48.8000 -96.0000 4.0000
   vertex -48.8000 -96.0000 5.4000
  endloop
 endfacet
 facet normal -1.000000 0.000000 0.000000
  outer loop
   vertex -48.8000 96.0000 4.0000
   vertex -48.8000 -96.0000 5.4000
   vertex -48.8000 96.0000 5.4000
  endloop
 endfacet
 facet normal 0.000000 0.000000 -1.000000
  outer loop
   vertex -96.0000 -48.8000 4.0000
   vertex 96.0000 -47.2000 4.0000
   vertex 96.0000 -48.8000 4.0000
  endloop
 endfacet
 facet normal 0.000000 0.000000 -1.000000
  outer loop
   vertex -96.0000 -48.8000 4.0000
   vertex -96.0000 -47.2000 4.0000
   vertex 96.0000 -47.2000 4.0000
  endloop
 endfacet
 facet normal 0.000000 0.000000 1.000000
  outer loop
   vertex -96.0000 -48.8000 5.4000
   vertex 96.0000 -48.8000 5.4000
   vertex 96.0000 -47.2000 5.4000
  endloop
 endfacet
 facet normal 0.000000 0.000000 1.000000
  outer loop
   vertex -96.0000 -48.8000 5.4000
   vertex 96.0000 -47.2000 5.4000
   vertex -96.0000 -47.2000 5.4000
  endloop
 endfacet
 facet normal 0.000000 -1.000000 0.000000
  outer loop
   vertex -96.0000 -48.8000 4.0000
   vertex 96.0000 -48.8000 4.0000
   vertex 96.0000 -48.8000 5.4000
  endloop
 endfacet
 facet normal 0.000000 -1.000000 0.000000
  outer loop
   vertex -96.0000 -48.8000 4.0000
   vertex 96.0000 -48.8000 5.4000
   vertex -96.0000 -48.8000 5.4000
  endloop
 endfacet
 facet normal 1.000000 0.000000 0.000000
  outer loop
   vertex 96.0000 -48.8000 4.0000
   vertex 96.0000 -47.2000 4.0000
   vertex 96.0000 -47.2000 5.4000
  endloop
 endfacet
 facet normal 1.000000 0.000000 0.000000
  outer loop
   vertex 96.0000 -48.8000 4.0000
   vertex 96.0000 -47.2000 5.4000
   vertex 96.0000 -48.8000 5.4000
  endloop
 endfacet
 facet normal 0.000000 1.000000 0.000000
  outer loop
   vertex 96.0000 -47.2000 4.0000
   vertex -96.0000 -47.2000 4.0000
   vertex -96.0000 -47.2000 5.4000
  endloop
 endfacet
 facet normal 0.000000 1.000000 0.000000
  outer loop
   vertex 96.0000 -47.2000 4.0000
   vertex -96.0000 -47.2000 5.4000
   vertex 96.0000 -47.2000 5.4000
  endloop
 endfacet
 facet normal -1.000000 0.000000 0.000000
  outer loop
   vertex -96.0000 -47.2000 4.0000
   vertex -96.0000 -48.8000 4.0000
   vertex -96.0000 -48.8000 5.4000
  endloop
 endfacet
 facet normal -1.000000 0.000000 0.000000
  outer loop
   vertex -96.0000 -47.2000 4.0000
   vertex -96.0000 -48.8000 5.4000
   vertex -96.0000 -47.2000 5.4000
  endloop
 endfacet
 facet normal 0.000000 0.000000 -1.000000
  outer loop
   vertex -24.8000 -96.0000 4.0000
   vertex -23.2000 96.0000 4.0000
   vertex -23.2000 -96.0000 4.0000
  endloop
 endfacet
 facet normal 0.000000 0.000000 -1.000000
  outer loop
   vertex -24.8000 -96.0000 4.0000
   vertex -24.8000 96.0000 4.0000
   vertex -23.2000 96.0000 4.0000
  endloop
 endfacet
 facet normal 0.000000 0.000000 1.000000
  outer loop
   vertex -24.8000 -96.0000 5.4000
   vertex -23.2000 -96.0000 5.4000
   vertex -23.2000 96.0000 5.4000
  endloop
 endfacet
 facet normal 0.000000 0.000000 1.000000
  outer loop
   vertex -24.8000 -96.0000 5.4000
   vertex -23.2000 96.0000 5.4000
   vertex -24.8000 96.0000 5.4000
  endloop
 endfacet
 facet normal 0.000000 -1.000000 0.000000
  outer loop
   vertex -24.8000 -96.0000 4.0000
   vertex -23.2000 -96.0000 4.0000
   vertex -23.2000 -96.0000 5.4000
  endloop
 endfacet
 facet normal 0.000000 -1.000000 0.000000
  outer loop
   vertex -24.8000 -96.0000 4.0000
   vertex -23.2000 -96.0000 5.4000
   vertex -24.8000 -96.0000 5.4000
  endloop
 endfacet
 facet normal 1.000000 0.000000 0.000000
  outer loop
   vertex -23.2000 -96.0000 4.0000
   vertex -23.2000 96.0000 4.0000
   vertex -23.2000 96.0000 5.4000
  endloop
 endfacet
 facet normal 1.000000 0.000000 0.000000
  outer loop
   vertex -23.2000 -96.0000 4.0000
   vertex -23.2000 96.0000 5.4000
   vertex -23.2000 -96.0000 5.4000
  endloop
 endfacet
 facet normal 0.000000 1.000000 0.000000
  outer loop
   vertex -23.2000 96.0000 4.0000
   vertex -24.8000 96.0000 4.0000
   vertex -24.8000 96.0000 5.4000
  endloop
 endfacet
 facet normal 0.000000 1.000000 0.000000
  outer loop
   vertex -23.2000 96.0000 4.0000
   vertex -24.8000 96.0000 5.4000
   vertex -23.2000 96.0000 5.4000
  endloop
 endfacet
 facet normal -1.000000 0.000000 0.000000
  outer loop
   vertex -24.8000 96.0000 4.0000
   vertex -24.8000 -96.0000 4.0000
   vertex -24.8000 -96.0000 5.4000
  endloop
 endfacet
 facet normal -1.000000 0.000000 0.000000
  outer loop
   vertex -24.8000 96.0000 4.0000
   vertex -24.8000 -96.0000 5.4000
   vertex -24.8000 96.0000 5.4000
  endloop
 endfacet
 facet normal 0.000000 0.000000 -1.000000
  outer loop
   vertex -96.0000 -24.8000 4.0000
   vertex 96.0000 -23.2000 4.0000
   vertex 96.0000 -24.8000 4.0000
  endloop
 endfacet
 facet normal 0.000000 0.000000 -1.000000
  outer loop
   vertex -96.0000 -24.8000 4.0000
   vertex -96.0000 -23.2000 4.0000
   vertex 96.0000 -23.2000 4.0000
  endloop
 endfacet
 facet normal 0.000000 0.000000 1.000000
  outer loop
   vertex -96.0000 -24.8000 5.4000
   vertex 96.0000 -24.8000 5.4000
   vertex 96.0000 -23.2000 5.4000
  endloop
 endfacet
 facet normal 0.000000 0.000000 1.000000
  outer loop
   vertex -96.0000 -24.8000 5.4000
   vertex 96.0000 -23.2000 5.4000
   vertex -96.0000 -23.2000 5.4000
  endloop
 endfacet
 facet normal 0.000000 -1.000000 0.000000
  outer loop
   vertex -96.0000 -24.8000 4.0000
   vertex 96.0000 -24.8000 4.0000
   vertex 96.0000 -24.8000 5.4000
  endloop
 endfacet
 facet normal 0.000000 -1.000000 0.000000
  outer loop
   vertex -96.0000 -24.8000 4.0000
   vertex 96.0000 -24.8000 5.4000
   vertex -96.0000 -24.8000 5.4000
  endloop
 endfacet
 facet normal 1.000000 0.000000 0.000000
  outer loop
   vertex 96.0000 -24.8000 4.0000
   vertex 96.0000 -23.2000 4.0000
   vertex 96.0000 -23.2000 5.4000
  endloop
 endfacet
 facet normal 1.000000 0.000000 0.000000
  outer loop
   vertex 96.0000 -24.8000 4.0000
   vertex 96.0000 -23.2000 5.4000
   vertex 96.0000 -24.8000 5.4000
  endloop
 endfacet
 facet normal 0.000000 1.000000 0.000000
  outer loop
   vertex 96.0000 -23.2000 4.0000
   vertex -96.0000 -23.2000 4.0000
   vertex -96.0000 -23.2000 5.4000
  endloop
 endfacet
 facet normal 0.000000 1.000000 0.000000
  outer loop
   vertex 96.0000 -23.2000 4.0000
   vertex -96.0000 -23.2000 5.4000
   vertex 96.0000 -23.2000 5.4000
  endloop
 endfacet
 facet normal -1.000000 0.000000 0.000000
  outer loop
   vertex -96.0000 -23.2000 4.0000
   vertex -96.0000 -24.8000 4.0000
   vertex -96.0000 -24.8000 5.4000
  endloop
 endfacet
 facet normal -1.000000 0.000000 0.000000
  outer loop
   vertex -96.0000 -23.2000 4.0000
   vertex -96.0000 -24.8000 5.4000
   vertex -96.0000 -23.2000 5.4000
  endloop
 endfacet
 facet normal 0.000000 0.000000 -1.000000
  outer loop
   vertex -0.8000 -96.0000 4.0000
   vertex 0.8000 96.0000 4.0000
   vertex 0.8000 -96.0000 4.0000
  endloop
 endfacet
 facet normal 0.000000 0.000000 -1.000000
  outer loop
   vertex -0.8000 -96.0000 4.0000
   vertex -0.8000 96.0000 4.0000
   vertex 0.8000 96.0000 4.0000
  endloop
 endfacet
 facet normal 0.000000 0.000000 1.000000
  outer loop
   vertex -0.8000 -96.0000 5.4000
   vertex 0.8000 -96.0000 5.4000
   vertex 0.8000 96.0000 5.4000
  endloop
 endfacet
 facet normal 0.000000 0.000000 1.000000
  outer loop
   vertex -0.8000 -96.0000 5.4000
   vertex 0.8000 96.0000 5.4000
   vertex -0.8000 96.0000 5.4000
  endloop
 endfacet
 facet normal 0.000000 -1.000000 0.000000
  outer loop
   vertex -0.8000 -96.0000 4.0000
   vertex 0.8000 -96.0000 4.0000
   vertex 0.8000 -96.0000 5.4000
  endloop
 endfacet
 facet normal 0.000000 -1.000000 0.000000
  outer loop
   vertex -0.8000 -96.0000 4.0000
   vertex 0.8000 -96.0000 5.4000
   vertex -0.8000 -96.0000 5.4000
  endloop
 endfacet
 facet normal 1.000000 0.000000 0.000000
  outer loop
   vertex 0.8000 -96.0000 4.0000
   vertex 0.8000 96.0000 4.0000
   vertex 0.8000 96.0000 5.4000
  endloop
 endfacet
 facet normal 1.000000 0.000000 0.000000
  outer loop
   vertex 0.8000 -96.0000 4.0000
   vertex 0.8000 96.0000 5.4000
   vertex 0.8000 -96.0000 5.4000
  endloop
 endfacet
 facet normal 0.000000 1.000000 0.000000
  outer loop
   vertex 0.8000 96.0000 4.0000
   vertex -0.8000 96.0000 4.0000
   vertex -0.8000 96.0000 5.4000
  endloop
 endfacet
 facet normal 0.000000 1.000000 0.000000
  outer loop
   vertex 0.8000 96.0000 4.0000
   vertex -0.8000 96.0000 5.4000
   vertex 0.8000 96.0000 5.4000
  endloop
 endfacet
 facet normal -1.000000 0.000000 0.000000
  outer loop
   vertex -0.8000 96.0000 4.0000
   vertex -0.8000 -96.0000 4.0000
   vertex -0.8000 -96.0000 5.4000
  endloop
 endfacet
 facet normal -1.000000 0.000000 0.000000
  outer loop
   vertex -0.8000 96.0000 4.0000
   vertex -0.8000 -96.0000 5.4000
   vertex -0.8000 96.0000 5.4000
  endloop
 endfacet
 facet normal 0.000000 0.000000 -1.000000
  outer loop
   vertex -96.0000 -0.8000 4.0000
   vertex 96.0000 0.8000 4.0000
   vertex 96.0000 -0.8000 4.0000
  endloop
 endfacet
 facet normal 0.000000 0.000000 -1.000000
  outer loop
   vertex -96.0000 -0.8000 4.0000
   vertex -96.0000 0.8000 4.0000
   vertex 96.0000 0.8000 4.0000
  endloop
 endfacet
 facet normal 0.000000 0.000000 1.000000
  outer loop
   vertex -96.0000 -0.8000 5.4000
   vertex 96.0000 -0.8000 5.4000
   vertex 96.0000 0.8000 5.4000
  endloop
 endfacet
 facet normal 0.000000 0.000000 1.000000
  outer loop
   vertex -96.0000 -0.8000 5.4000
   vertex 96.0000 0.8000 5.4000
   vertex -96.0000 0.8000 5.4000
  endloop
 endfacet
 facet normal 0.000000 -1.000000 0.000000
  outer loop
   vertex -96.0000 -0.8000 4.0000
   vertex 96.0000 -0.8000 4.0000
   vertex 96.0000 -0.8000 5.4000
  endloop
 endfacet
 facet normal 0.000000 -1.000000 0.000000
  outer loop
   vertex -96.0000 -0.8000 4.0000
   vertex 96.0000 -0.8000 5.4000
   vertex -96.0000 -0.8000 5.4000
  endloop
 endfacet
 facet normal 1.000000 0.000000 0.000000
  outer loop
   vertex 96.0000 -0.8000 4.0000
   vertex 96.0000 0.8000 4.0000
   vertex 96.0000 0.8000 5.4000
  endloop
 endfacet
 facet normal 1.000000 0.000000 0.000000
  outer loop
   vertex 96.0000 -0.8000 4.0000
   vertex 96.0000 0.8000 5.4000
   vertex 96.0000 -0.8000 5.4000
  endloop
 endfacet
 facet normal 0.000000 1.000000 0.000000
  outer loop
   vertex 96.0000 0.8000 4.0000
   vertex -96.0000 0.8000 4.0000
   vertex -96.0000 0.8000 5.4000
  endloop
 endfacet
 facet normal 0.000000 1.000000 0.000000
  outer loop
   vertex 96.0000 0.8000 4.0000
   vertex -96.0000 0.8000 5.4000
   vertex 96.0000 0.8000 5.4000
  endloop
 endfacet
 facet normal -1.000000 0.000000 0.000000
  outer loop
   vertex -96.0000 0.8000 4.0000
   vertex -96.0000 -0.8000 4.0000
   vertex -96.0000 -0.8000 5.4000
  endloop
 endfacet
 facet normal -1.000000 0.000000 0.000000
  outer loop
   vertex -96.0000 0.8000 4.0000
   vertex -96.0000 -0.8000 5.4000
   vertex -96.0000 0.8000 5.4000
  endloop
 endfacet
 facet normal 0.000000 0.000000 -1.000000
  outer loop
   vertex 23.2000 -96.0000 4.0000
   vertex 24.8000 96.0000 4.0000
   vertex 24.8000 -96.0000 4.0000
  endloop
 endfacet
 facet normal 0.000000 0.000000 -1.000000
  outer loop
   vertex 23.2000 -96.0000 4.0000
   vertex 23.2000 96.0000 4.0000
   vertex 24.8000 96.0000 4.0000
  endloop
 endfacet
 facet normal 0.000000 0.000000 1.000000
  outer loop
   vertex 23.2000 -96.0000 5.4000
   vertex 24.8000 -96.0000 5.4000
   vertex 24.8000 96.0000 5.4000
  endloop
 endfacet
 facet normal 0.000000 0.000000 1.000000
  outer loop
   vertex 23.2000 -96.0000 5.4000
   vertex 24.8000 96.0000 5.4000
   vertex 23.2000 96.0000 5.4000
  endloop
 endfacet
 facet normal 0.000000 -1.000000 0.000000
  outer loop
   vertex 23.2000 -96.0000 4.0000
   vertex 24.8000 -96.0000 4.0000
   vertex 24.8000 -96.0000 5.4000
  endloop
 endfacet
 facet normal 0.000000 -1.000000 0.000000
  outer loop
   vertex 23.2000 -96.0000 4.0000
   vertex 24.8000 -96.0000 5.4000
   vertex 23.2000 -96.0000 5.4000
  endloop
 endfacet
 facet normal 1.000000 0.000000 0.000000
  outer loop
   vertex 24.8000 -96.0000 4.0000
   vertex 24.8000 96.0000 4.0000
   vertex 24.8000 96.0000 5.4000
  endloop
 endfacet
 facet normal 1.000000 0.000000 0.000000
  outer loop
   vertex 24.8000 -96.0000 4.0000
   vertex 24.8000 96.0000 5.4000
   vertex 24.8000 -96.0000 5.4000
  endloop
 endfacet
 facet normal 0.000000 1.000000 0.000000
  outer loop
   vertex 24.8000 96.0000 4.0000
   vertex 23.2000 96.0000 4.0000
   vertex 23.2000 96.0000 5.4000
  endloop
 endfacet
 facet normal 0.000000 1.000000 0.000000
  outer loop
   vertex 24.8000 96.0000 4.0000
   vertex 23.2000 96.0000 5.4000
   vertex 24.8000 96.0000 5.4000
  endloop
 endfacet
 facet normal -1.000000 0.000000 0.000000
  outer loop
   vertex 23.2000 96.0000 4.0000
   vertex 23.2000 -96.0000 4.0000
   vertex 23.2000 -96.0000 5.4000
  endloop
 endfacet
 facet normal -1.000000 0.000000 0.000000
  outer loop
   vertex 23.2000 96.0000 4.0000
   vertex 23.2000 -96.0000 5.4000
   vertex 23.2000 96.0000 5.4000
  endloop
 endfacet
 facet normal 0.000000 0.000000 -1.000000
  outer loop
   vertex -96.0000 23.2000 4.0000
   vertex 96.0000 24.8000 4.0000
   vertex 96.0000 23.2000 4.0000
  endloop
 endfacet
 facet normal 0.000000 0.000000 -1.000000
  outer loop
   vertex -96.0000 23.2000 4.0000
   vertex -96.0000 24.8000 4.0000
   vertex 96.0000 24.8000 4.0000
  endloop
 endfacet
 facet normal 0.000000 0.000000 1.000000
  outer loop
   vertex -96.0000 23.2000 5.4000
   vertex 96.0000 23.2000 5.4000
   vertex 96.0000 24.8000 5.4000
  endloop
 endfacet
 facet normal 0.000000 0.000000 1.000000
  outer loop
   vertex -96.0000 23.2000 5.4000
   vertex 96.0000 24.8000 5.4000
   vertex -96.0000 24.8000 5.4000
  endloop
 endfacet
 facet normal 0.000000 -1.000000 0.000000
  outer loop
   vertex -96.0000 23.2000 4.0000
   vertex 96.0000 23.2000 4.0000
   vertex 96.0000 23.2000 5.4000
  endloop
 endfacet
 facet normal 0.000000 -1.000000 0.000000
  outer loop
   vertex -96.0000 23.2000 4.0000
   vertex 96.0000 23.2000 5.4000
   vertex -96.0000 23.2000 5.4000
  endloop
 endfacet
 facet normal 1.000000 0.000000 0.000000
  outer loop
   vertex 96.0000 23.2000 4.0000
   vertex 96.0000 24.8000 4.0000
   vertex 96.0000 24.8000 5.4000
  endloop
 endfacet
 facet normal 1.000000 0.000000 0.000000
  outer loop
   vertex 96.0000 23.2000 4.0000
   vertex 96.0000 24.8000 5.4000
   vertex 96.0000 23.2000 5.4000
  endloop
 endfacet
 facet normal 0.000000 1.000000 0.000000
  outer loop
   vertex 96.0000 24.8000 4.0000
   vertex -96.0000 24.8000 4.0000
   vertex -96.0000 24.8000 5.4000
  endloop
 endfacet
 facet normal 0.000000 1.000000 0.000000
  outer loop
   vertex 96.0000 24.8000 4.0000
   vertex -96.0000 24.8000 5.4000
   vertex 96.0000 24.8000 5.4000
  endloop
 endfacet
 facet normal -1.000000 0.000000 0.000000
  outer loop
   vertex -96.0000 24.8000 4.0000
   vertex -96.0000 23.2000 4.0000
   vertex -96.0000 23.2000 5.4000
  endloop
 endfacet
 facet normal -1.000000 0.000000 0.000000
  outer loop
   vertex -96.0000 24.8000 4.0000
   vertex -96.0000 23.2000 5.4000
   vertex -96.0000 24.8000 5.4000
  endloop
 endfacet
 facet normal 0.000000 0.000000 -1.000000
  outer loop
   vertex 47.2000 -96.0000 4.0000
   vertex 48.8000 96.0000 4.0000
   vertex 48.8000 -96.0000 4.0000
  endloop
 endfacet
 facet normal 0.000000 0.000000 -1.000000
  outer loop
   vertex 47.2000 -96.0000 4.0000
   vertex 47.2000 96.0000 4.0000
   vertex 48.8000 96.0000 4.0000
  endloop
 endfacet
 facet normal 0.000000 0.000000 1.000000
  outer loop
   vertex 47.2000 -96.0000 5.4000
   vertex 48.8000 -96.0000 5.4000
   vertex 48.8000 96.0000 5.4000
  endloop
 endfacet
 facet normal 0.000000 0.000000 1.000000
  outer loop
   vertex 47.2000 -96.0000 5.4000
   vertex 48.8000 96.0000 5.4000
   vertex 47.2000 96.0000 5.4000
  endloop
 endfacet
 facet normal 0.000000 -1.000000 0.000000
  outer loop
   vertex 47.2000 -96.0000 4.0000
   vertex 48.8000 -96.0000 4.0000
   vertex 48.8000 -96.0000 5.4000
  endloop
 endfacet
 facet normal 0.000000 -1.000000 0.000000
  outer loop
   vertex 47.2000 -96.0000 4.0000
   vertex 48.8000 -96.0000 5.4000
   vertex 47.2000 -96.0000 5.4000
  endloop
 endfacet
 facet normal 1.000000 0.000000 0.000000
  outer loop
   vertex 48.8000 -96.0000 4.0000
   vertex 48.8000 96.0000 4.0000
   vertex 48.8000 96.0000 5.4000
  endloop
 endfacet
 facet normal 1.000000 0.000000 0.000000
  outer loop
   vertex 48.8000 -96.0000 4.0000
   vertex 48.8000 96.0000 5.4000
   vertex 48.8000 -96.0000 5.4000
  endloop
 endfacet
 facet normal 0.000000 1.000000 0.000000
  outer loop
   vertex 48.8000 96.0000 4.0000
   vertex 47.2000 96.0000 4.0000
   vertex 47.2000 96.0000 5.4000
  endloop
 endfacet
 facet normal 0.000000 1.000000 0.000000
  outer loop
   vertex 48.8000 96.0000 4.0000
   vertex 47.2000 96.0000 5.4000
   vertex 48.8000 96.0000 5.4000
  endloop
 endfacet
 facet normal -1.000000 0.000000 0.000000
  outer loop
   vertex 47.2000 96.0000 4.0000
   vertex 47.2000 -96.0000 4.0000
   vertex 47.2000 -96.0000 5.4000
  endloop
 endfacet
 facet normal -1.000000 0.000000 0.000000
  outer loop
   vertex 47.2000 96.0000 4.0000
   vertex 47.2000 -96.0000 5.4000
   vertex 47.2000 96.0000 5.4000
  endloop
 endfacet
 facet normal 0.000000 0.000000 -1.000000
  outer loop
   vertex -96.0000 47.2000 4.0000
   vertex 96.0000 48.8000 4.0000
   vertex 96.0000 47.2000 4.0000
  endloop
 endfacet
 facet normal 0.000000 0.000000 -1.000000
  outer loop
   vertex -96.0000 47.2000 4.0000
   vertex -96.0000 48.8000 4.0000
   vertex 96.0000 48.8000 4.0000
  endloop
 endfacet
 facet normal 0.000000 0.000000 1.000000
  outer loop
   vertex -96.0000 47.2000 5.4000
   vertex 96.0000 47.2000 5.4000
   vertex 96.0000 48.8000 5.4000
  endloop
 endfacet
 facet normal 0.000000 0.000000 1.000000
  outer loop
   vertex -96.0000 47.2000 5.4000
   vertex 96.0000 48.8000 5.4000
   vertex -96.0000 48.8000 5.4000
  endloop
 endfacet
 facet normal 0.000000 -1.000000 0.000000
  outer loop
   vertex -96.0000 47.2000 4.0000
   vertex 96.0000 47.2000 4.0000
   vertex 96.0000 47.2000 5.4000
  endloop
 endfacet
 facet normal 0.000000 -1.000000 0.000000
  outer loop
   vertex -96.0000 47.2000 4.0000
   vertex 96.0000 47.2000 5.4000
   vertex -96.0000 47.2000 5.4000
  endloop
 endfacet
 facet normal 1.000000 0.000000 0.000000
  outer loop
   vertex 96.0000 47.2000 4.0000
   vertex 96.0000 48.8000 4.0000
   vertex 96.0000 48.8000 5.4000
  endloop
 endfacet
 facet normal 1.000000 0.000000 0.000000
  outer loop
   vertex 96.0000 47.2000 4.0000
   vertex 96.0000 48.8000 5.4000
   vertex 96.0000 47.2000 5.4000
  endloop
 endfacet
 facet normal 0.000000 1.000000 0.000000
  outer loop
   vertex 96.0000 48.8000 4.0000
   vertex -96.0000 48.8000 4.0000
   vertex -96.0000 48.8000 5.4000
  endloop
 endfacet
 facet normal 0.000000 1.000000 0.000000
  outer loop
   vertex 96.0000 48.8000 4.0000
   vertex -96.0000 48.8000 5.4000
   vertex 96.0000 48.8000 5.4000
  endloop
 endfacet
 facet normal -1.000000 0.000000 0.000000
  outer loop
   vertex -96.0000 48.8000 4.0000
   vertex -96.0000 47.2000 4.0000
   vertex -96.0000 47.2000 5.4000
  endloop
 endfacet
 facet normal -1.000000 0.000000 0.000000
  outer loop
   vertex -96.0000 48.8000 4.0000
   vertex -96.0000 47.2000 5.4000
   vertex -96.0000 48.8000 5.4000
  endloop
 endfacet
 facet normal 0.000000 0.000000 -1.000000
  outer loop
   vertex 71.2000 -96.0000 4.0000
   vertex 72.8000 96.0000 4.0000
   vertex 72.8000 -96.0000 4.0000
  endloop
 endfacet
 facet normal 0.000000 0.000000 -1.000000
  outer loop
   vertex 71.2000 -96.0000 4.0000
   vertex 71.2000 96.0000 4.0000
   vertex 72.8000 96.0000 4.0000
  endloop
 endfacet
 facet normal 0.000000 0.000000 1.000000
  outer loop
   vertex 71.2000 -96.0000 5.4000
   vertex 72.8000 -96.0000 5.4000
   vertex 72.8000 96.0000 5.4000
  endloop
 endfacet
 facet normal 0.000000 0.000000 1.000000
  outer loop
   vertex 71.2000 -96.0000 5.4000
   vertex 72.8000 96.0000 5.4000
   vertex 71.2000 96.0000 5.4000
  endloop
 endfacet
 facet normal 0.000000 -1.000000 0.000000
  outer loop
   vertex 71.2000 -96.0000 4.0000
   vertex 72.8000 -96.0000 4.0000
   vertex 72.8000 -96.0000 5.4000
  endloop
 endfacet
 facet normal 0.000000 -1.000000 0.000000
  outer loop
   vertex 71.2000 -96.0000 4.0000
   vertex 72.8000 -96.0000 5.4000
   vertex 71.2000 -96.0000 5.4000
  endloop
 endfacet
 facet normal 1.000000 0.000000 0.000000
  outer loop
   vertex 72.8000 -96.0000 4.0000
   vertex 72.8000 96.0000 4.0000
   vertex 72.8000 96.0000 5.4000
  endloop
 endfacet
 facet normal 1.000000 0.000000 0.000000
  outer loop
   vertex 72.8000 -96.0000 4.0000
   vertex 72.8000 96.0000 5.4000
   vertex 72.8000 -96.0000 5.4000
  endloop
 endfacet
 facet normal 0.000000 1.000000 0.000000
  outer loop
   vertex 72.8000 96.0000 4.0000
   vertex 71.2000 96.0000 4.0000
   vertex 71.2000 96.0000 5.4000
  endloop
 endfacet
 facet normal 0.000000 1.000000 0.000000
  outer loop
   vertex 72.8000 96.0000 4.0000
   vertex 71.2000 96.0000 5.4000
   vertex 72.8000 96.0000 5.4000
  endloop
 endfacet
 facet normal -1.000000 0.000000 0.000000
  outer loop
   vertex 71.2000 96.0000 4.0000
   vertex 71.2000 -96.0000 4.0000
   vertex 71.2000 -96.0000 5.4000
  endloop
 endfacet
 facet normal -1.000000 0.000000 0.000000
  outer loop
   vertex 71.2000 96.0000 4.0000
   vertex 71.2000 -96.0000 5.4000
   vertex 71.2000 96.0000 5.4000
  endloop
 endfacet
 facet normal 0.000000 0.000000 -1.000000
  outer loop
   vertex -96.0000 71.2000 4.0000
   vertex 96.0000 72.8000 4.0000
   vertex 96.0000 71.2000 4.0000
  endloop
 endfacet
 facet normal 0.000000 0.000000 -1.000000
  outer loop
   vertex -96.0000 71.2000 4.0000
   vertex -96.0000 72.8000 4.0000
   vertex 96.0000 72.8000 4.0000
  endloop
 endfacet
 facet normal 0.000000 0.000000 1.000000
  outer loop
   vertex -96.0000 71.2000 5.4000
   vertex 96.0000 71.2000 5.4000
   vertex 96.0000 72.8000 5.4000
  endloop
 endfacet
 facet normal 0.000000 0.000000 1.000000
  outer loop
   vertex -96.0000 71.2000 5.4000
   vertex 96.0000 72.8000 5.4000
   vertex -96.0000 72.8000 5.4000
  endloop
 endfacet
 facet normal 0.000000 -1.000000 0.000000
  outer loop
   vertex -96.0000 71.2000 4.0000
   vertex 96.0000 71.2000 4.0000
   vertex 96.0000 71.2000 5.4000
  endloop
 endfacet
 facet normal 0.000000 -1.000000 0.000000
  outer loop
   vertex -96.0000 71.2000 4.0000
   vertex 96.0000 71.2000 5.4000
   vertex -96.0000 71.2000 5.4000
  endloop
 endfacet
 facet normal 1.000000 0.000000 0.000000
  outer loop
   vertex 96.0000 71.2000 4.0000
   vertex 96.0000 72.8000 4.0000
   vertex 96.0000 72.8000 5.4000
  endloop
 endfacet
 facet normal 1.000000 0.000000 0.000000
  outer loop
   vertex 96.0000 71.2000 4.0000
   vertex 96.0000 72.8000 5.4000
   vertex 96.0000 71.2000 5.4000
  endloop
 endfacet
 facet normal 0.000000 1.000000 0.000000
  outer loop
   vertex 96.0000 72.8000 4.0000
   vertex -96.0000 72.8000 4.0000
   vertex -96.0000 72.8000 5.4000
  endloop
 endfacet
 facet normal 0.000000 1.000000 0.000000
  outer loop
   vertex 96.0000 72.8000 4.0000
   vertex -96.0000 72.8000 5.4000
   vertex 96.0000 72.8000 5.4000
  endloop
 endfacet
 facet normal -1.000000 0.000000 0.000000
  outer loop
   vertex -96.0000 72.8000 4.0000
   vertex -96.0000 71.2000 4.0000
   vertex -96.0000 71.2000 5.4000
  endloop
 endfacet
 facet normal -1.000000 0.000000 0.000000
  outer loop
   vertex -96.0000 72.8000 4.0000
   vertex -96.0000 71.2000 5.4000
   vertex -96.0000 72.8000 5.4000
  endloop
 endfacet
 facet normal 0.000000 0.000000 -1.000000
  outer loop
   vertex 95.2000 -96.0000 4.0000
   vertex 96.8000 96.0000 4.0000
   vertex 96.8000 -96.0000 4.0000
  endloop
 endfacet
 facet normal 0.000000 0.000000 -1.000000
  outer loop
   vertex 95.2000 -96.0000 4.0000
   vertex 95.2000 96.0000 4.0000
   vertex 96.8000 96.0000 4.0000
  endloop
 endfacet
 facet normal 0.000000 0.000000 1.000000
  outer loop
   vertex 95.2000 -96.0000 5.4000
   vertex 96.8000 -96.0000 5.4000
   vertex 96.8000 96.0000 5.4000
  endloop
 endfacet
 facet normal 0.000000 0.000000 1.000000
  outer loop
   vertex 95.2000 -96.0000 5.4000
   vertex 96.8000 96.0000 5.4000
   vertex 95.2000 96.0000 5.4000
  endloop
 endfacet
 facet normal 0.000000 -1.000000 0.000000
  outer loop
   vertex 95.2000 -96.0000 4.0000
   vertex 96.8000 -96.0000 4.0000
   vertex 96.8000 -96.0000 5.4000
  endloop
 endfacet
 facet normal 0.000000 -1.000000 0.000000
  outer loop
   vertex 95.2000 -96.0000 4.0000
   vertex 96.8000 -96.0000 5.4000
   vertex 95.2000 -96.0000 5.4000
  endloop
 endfacet
 facet normal 1.000000 0.000000 0.000000
  outer loop
   vertex 96.8000 -96.0000 4.0000
   vertex 96.8000 96.0000 4.0000
   vertex 96.8000 96.0000 5.4000
  endloop
 endfacet
 facet normal 1.000000 0.000000 0.000000
  outer loop
   vertex 96.8000 -96.0000 4.0000
   vertex 96.8000 96.0000 5.4000
   vertex 96.8000 -96.0000 5.4000
  endloop
 endfacet
 facet normal 0.000000 1.000000 0.000000
  outer loop
   vertex 96.8000 96.0000 4.0000
   vertex 95.2000 96.0000 4.0000
   vertex 95.2000 96.0000 5.4000
  endloop
 endfacet
 facet normal 0.000000 1.000000 0.000000
  outer loop
   vertex 96.8000 96.0000 4.0000
   vertex 95.2000 96.0000 5.4000
   vertex 96.8000 96.0000 5.4000
  endloop
 endfacet
 facet normal -1.000000 0.000000 0.000000
  outer loop
   vertex 95.2000 96.0000 4.0000
   vertex 95.2000 -96.0000 4.0000
   vertex 95.2000 -96.0000 5.4000
  endloop
 endfacet
 facet normal -1.000000 0.000000 0.000000
  outer loop
   vertex 95.2000 96.0000 4.0000
   vertex 95.2000 -96.0000 5.4000
   vertex 95.2000 96.0000 5.4000
  endloop
 endfacet
 facet normal 0.000000 0.000000 -1.000000
  outer loop
   vertex -96.0000 95.2000 4.0000
   vertex 96.0000 96.8000 4.0000
   vertex 96.0000 95.2000 4.0000
  endloop
 endfacet
 facet normal 0.000000 0.000000 -1.000000
  outer loop
   vertex -96.0000 95.2000 4.0000
   vertex -96.0000 96.8000 4.0000
   vertex 96.0000 96.8000 4.0000
  endloop
 endfacet
 facet normal 0.000000 0.000000 1.000000
  outer loop
   vertex -96.0000 95.2000 5.4000
   vertex 96.0000 95.2000 5.4000
   vertex 96.0000 96.8000 5.4000
  endloop
 endfacet
 facet normal 0.000000 0.000000 1.000000
  outer loop
   vertex -96.0000 95.2000 5.4000
   vertex 96.0000 96.8000 5.4000
   vertex -96.0000 96.8000 5.4000
  endloop
 endfacet
 facet normal 0.000000 -1.000000 0.000000
  outer loop
   vertex -96.0000 95.2000 4.0000
   vertex 96.0000 95.2000 4.0000
   vertex 96.0000 95.2000 5.4000
  endloop
 endfacet
 facet normal 0.000000 -1.000000 0.000000
  outer loop
   vertex -96.0000 95.2000 4.0000
   vertex 96.0000 95.2000 5.4000
   vertex -96.0000 95.2000 5.4000
  endloop
 endfacet
 facet normal 1.000000 0.000000 0.000000
  outer loop
   vertex 96.0000 95.2000 4.0000
   vertex 96.0000 96.8000 4.0000
   vertex 96.0000 96.8000 5.4000
  endloop
 endfacet
 facet normal 1.000000 0.000000 0.000000
  outer loop
   vertex 96.0000 95.2000 4.0000
   vertex 96.0000 96.8000 5.4000
   vertex 96.0000 95.2000 5.4000
  endloop
 endfacet
 facet normal 0.000000 1.000000 0.000000
  outer loop
   vertex 96.0000 96.8000 4.0000
   vertex -96.0000 96.8000 4.0000
   vertex -96.0000 96.8000 5.4000
  endloop
 endfacet
 facet normal 0.000000 1.000000 0.000000
  outer loop
   vertex 96.0000 96.8000 4.0000
   vertex -96.0000 96.8000 5.4000
   vertex 96.0000 96.8000 5.4000
  endloop
 endfacet
 facet normal -1.000000 0.000000 0.000000
  outer loop
   vertex -96.0000 96.8000 4.0000
   vertex -96.0000 95.2000 4.0000
   vertex -96.0000 95.2000 5.4000
  endloop
 endfacet
 facet normal -1.000000 0.000000 0.000000
  outer loop
   vertex -96.0000 96.8000 4.0000
   vertex -96.0000 95.2000 5.4000
   vertex -96.0000 96.8000 5.4000
  endloop
 endfacet
endsolid accessible_tactile_chess_board